<?xml version="1.0"?>
<svg width="1280" height="1206" xmlns="http://www.w3.org/2000/svg" xmlns:svg="http://www.w3.org/2000/svg" preserveAspectRatio="xMidYMid meet" version="1.0">
 <metadata>Created by potrace 1.15, written by Peter Selinger 2001-2017</metadata>
 <g class="layer">
  <title>Layer 1</title>
  <g fill="#000000" id="svg_1" transform="matrix(0.1 0 0 -0.1 0 0)">
   <path d="m5828,-460c-282,-250 -1418,-1256 -2523,-2235c-1106,-978 -2165,-1917 -2355,-2085c-190,-168 -460,-407 -600,-530c-140,-124 -276,-245 -302,-270l-48,-45l330,-370c181,-203 336,-369 343,-369c8,1 603,521 1323,1156c3778,3332 4388,3868 4395,3866c4,-2 470,-413 1036,-914c565,-501 1842,-1631 2836,-2512c994,-881 1812,-1602 1817,-1602c5,0 12,5 15,10c5,8 11,7 21,-1c19,-15 -10,-45 339,351c153,173 293,331 312,351l34,36l-838,739c-461,407 -1544,1363 -2408,2124c-863,762 -1919,1693 -2347,2070l-776,685l-45,0l-45,0l-514,-455z" fill="#007f7f" id="svg_2" stroke="black" stroke-width="5"/>
   <path d="m5707,-2759c-364,-322 -1370,-1213 -2235,-1979l-1572,-1393l2,-2872l3,-2872l22,-41c12,-23 41,-58 64,-77c83,-72 -24,-67 1561,-67l1428,0l2,1273c3,1266 3,1272 24,1317c26,58 76,108 134,134c45,21 52,21 1224,24c1304,3 1248,5 1322,-60c52,-46 81,-97 93,-163c8,-40 11,-454 11,-1292l0,-1233l1484,2l1485,3l30,29c17,16 45,63 63,105l33,76l2,2860l2,2860l-2240,1975c-1270,1120 -2249,1976 -2260,1976c-13,1 -247,-200 -682,-585z" fill="#007f7f" id="svg_3" stroke="black" stroke-width="5"/>
  </g>
 </g>
</svg>